<svg xmlns="http://www.w3.org/2000/svg" viewBox="0 0 800 600">
  <!-- Resources -->
  <ellipse cx="400" cy="300" rx="80" ry="40" fill="#4a90e2" />
  <text x="400" y="300" text-anchor="middle" fill="white" font-size="14">:Transaction123</text>

  <ellipse cx="400" cy="150" rx="80" ry="40" fill="#9b59b6" />
  <text x="400" y="150" text-anchor="middle" fill="white" font-size="14">:FinancialTransaction</text>

  <ellipse cx="650" cy="300" rx="70" ry="40" fill="#4a90e2" />
  <text x="650" y="300" text-anchor="middle" fill="white" font-size="14">:DeriusDrake</text>
  <!-- Literals -->
  <rect x="300" y="400" width="120" height="40" rx="5" fill="#2ecc71" />
  <text x="360" y="425" text-anchor="middle" fill="white" font-size="14">"1828-09-15"</text>

  <rect x="450" y="400" width="100" height="40" rx="5" fill="#2ecc71" />
  <text x="500" y="425" text-anchor="middle" fill="white" font-size="14">"1.50"</text>
  <rect x="100" y="280" width="200" height="40" rx="5" fill="#2ecc71" />
  <text x="200" y="305" text-anchor="middle" fill="white" font-size="12">"Settlement for ax delivered..."</text>
  <!-- Arrows and Labels -->
  <defs>
    <marker id="arrowhead" markerWidth="10" markerHeight="7" refX="9" refY="3.5" orient="auto">
      <polygon points="0 0, 10 3.5, 0 7" fill="#95a5a6"/>
    </marker>
  </defs>
  <!-- Type connection -->
  <line x1="400" y1="260" x2="400" y2="190" stroke="#95a5a6" stroke-width="2" marker-end="url(#arrowhead)"/>
  <text x="420" y="230" fill="#34495e" font-size="12">rdf:type</text>
  <!-- Person connection -->
  <line x1="480" y1="300" x2="580" y2="300" stroke="#95a5a6" stroke-width="2" marker-end="url(#arrowhead)"/>
  <text x="520" y="290" fill="#34495e" font-size="12">:involvesPerson</text>
  <!-- Date connection -->
  <line x1="380" y1="340" x2="360" y2="400" stroke="#95a5a6" stroke-width="2" marker-end="url(#arrowhead)"/>
  <text x="350" y="380" fill="#34495e" font-size="12">:date</text>
  <!-- Amount connection -->
  <line x1="420" y1="340" x2="500" y2="400" stroke="#95a5a6" stroke-width="2" marker-end="url(#arrowhead)"/>
  <text x="480" y="380" fill="#34495e" font-size="12">:amount</text>
  <!-- Description connection -->
  <line x1="320" y1="300" x2="300" y2="300" stroke="#95a5a6" stroke-width="2" marker-end="url(#arrowhead)"/>
  <text x="310" y="290" fill="#34495e" font-size="12">:description</text>
</svg>